<svg height="511pt" viewBox="-26 0 511 511.78485" width="511pt" xmlns="http://www.w3.org/2000/svg"><path d="m427.992188 431.828125c-7.792969 7.800781-16.027344 15.152344-24.660157 22.015625-9.417969 7.484375-19.46875 14.136719-30.035156 19.882812-31.488281 16.960938-66.277344 26.890626-101.976563 29.097657-65.957031 3.703125-130.734374-18.636719-180.394531-62.207031-102.484375-90.539063-109.566406-252.84375-16.980469-352.855469 39.609376-42.421875 92.789063-69.675781 150.359376-77.054688 10.375-1.433593 20.839843-2.148437 31.316406-2.132812 3.859375.046875 7.207031 2.6875 8.148437 6.433593.941407 3.746094-.757812 7.65625-4.136719 9.523438-71.140624 37.464844-115.496093 111.429688-115.03125 191.828125 1.820313 94.234375 64.769532 176.308594 155.308594 202.496094 39.203125 11.0625 80.761719 10.621093 119.722656-1.277344 3.742188-1.078125 7.742188.515625 9.710938 3.878906 1.972656 3.359375 1.417969 7.628907-1.351562 10.371094zm0 0" fill="#fec108"/><path d="m403.332031 453.84375c-9.417969 7.484375-19.46875 14.136719-30.035156 19.882812-31.488281 16.960938-66.277344 26.890626-101.976563 29.097657-65.957031 3.703125-130.734374-18.636719-180.394531-62.207031-102.484375-90.539063-109.566406-252.84375-16.980469-352.855469 39.609376-42.421875 92.789063-69.675781 150.359376-77.054688-67.714844 46.277344-107.957032 123.214844-107.351563 205.226563 2.039063 108.175781 74.257813 202.425781 178.175781 232.535156 35.199219 9.9375 72.191406 11.773438 108.203125 5.375zm0 0" fill="#ffdc00"/><path d="m387.886719 136.316406c0-32.988281-22.921875-59.730468-51.199219-59.730468s-51.199219 26.742187-51.199219 59.730468c0 32.992188 22.921875 59.734375 51.199219 59.734375s51.199219-26.742187 51.199219-59.734375zm0 0" fill="#fec108"/><path d="m451.277344 234.453125c0-25.921875-18.011719-46.933594-40.226563-46.933594-22.21875 0-40.230469 21.011719-40.230469 46.933594 0 25.917969 18.011719 46.933594 40.230469 46.933594 22.214844 0 40.226563-21.015625 40.226563-46.933594zm0 0" fill="#fec108"/><path d="m256.613281 511.785156c-63.066406-.117187-123.945312-23.132812-171.316406-64.769531-51.140625-45.386719-81.632813-109.613281-84.472656-177.929687-4.085938-70.046876 20.953125-138.667969 69.191406-189.625 48.238281-50.953126 115.390625-79.707032 185.554687-79.460938h.054688c7.832031-.0507812 14.65625 5.332031 16.433594 12.960938 2.019531 7.566406-1.484375 15.527343-8.429688 19.148437-68.125 36.132813-110.644531 107.011719-110.453125 184.125.742188 64.355469 31.75 124.597656 83.691407 162.601563 51.9375 38.003906 118.742187 49.324218 180.304687 30.558593 7.484375-2.207031 15.515625.953125 19.492187 7.667969 3.980469 6.714844 2.890626 15.273438-2.640624 20.78125-16.695313 17.128906-35.800782 31.734375-56.707032 43.359375-32.582031 17.519531-68.570312 27.796875-105.492187 30.121094-5.0625.308593-10.144531.460937-15.210938.460937zm-.972656-494.757812c-65.503906-.25-128.199219 26.589844-173.230469 74.164062-45.027344 47.578125-68.386718 111.652344-64.539062 177.042969 2.625 63.726563 31.042968 123.644531 78.726562 166 47.925782 42.117187 110.5 63.6875 174.203125 60.058594 34.453125-2.171875 68.027344-11.765625 98.429688-28.125 19.445312-10.832031 37.207031-24.4375 52.726562-40.394531-66.679687 20.261718-139.011719 7.957031-195.238281-33.21875-56.230469-41.175782-89.796875-106.414063-90.609375-176.101563-.234375-83.503906 45.777344-160.269531 119.53125-199.425781zm0 0"/><path d="m336.6875 204.585938c-4.714844 0-8.535156-3.820313-8.535156-8.535157 0-28.234375-19.140625-51.199219-42.664063-51.199219-4.714843 0-8.535156-3.820312-8.535156-8.535156 0-4.710937 3.820313-8.53125 8.535156-8.53125 23.523438 0 42.664063-22.96875 42.664063-51.199218 0-4.714844 3.820312-8.535157 8.535156-8.535157 4.710938 0 8.53125 3.820313 8.53125 8.535157 0 28.230468 19.144531 51.199218 42.667969 51.199218 4.714843 0 8.535156 3.820313 8.535156 8.53125 0 4.714844-3.820313 8.535156-8.535156 8.535156-23.523438 0-42.667969 22.964844-42.667969 51.199219 0 4.714844-3.820312 8.535157-8.53125 8.535157zm-22.304688-68.269532c9.445313 6.125 17.132813 14.601563 22.304688 24.601563 5.167969-10 12.855469-18.476563 22.304688-24.601563-9.449219-6.121094-17.136719-14.597656-22.304688-24.597656-5.171875 10-12.859375 18.476562-22.304688 24.597656zm0 0"/><path d="m411.050781 289.917969c-4.714843 0-8.535156-3.820313-8.535156-8.53125 0-21.175781-14.214844-38.402344-31.695313-38.402344-4.710937 0-8.535156-3.820313-8.535156-8.53125 0-4.714844 3.824219-8.535156 8.535156-8.535156 17.480469 0 31.695313-17.226563 31.695313-38.398438 0-4.714843 3.820313-8.535156 8.535156-8.535156 4.710938 0 8.53125 3.820313 8.53125 8.535156 0 21.171875 14.21875 38.398438 31.695313 38.398438 4.714844 0 8.535156 3.820312 8.535156 8.535156 0 4.710937-3.820312 8.53125-8.535156 8.53125-17.476563 0-31.695313 17.226563-31.695313 38.402344 0 4.710937-3.820312 8.53125-8.53125 8.53125zm-14.269531-55.464844c5.765625 4.1875 10.617188 9.5 14.269531 15.613281 3.648438-6.113281 8.503907-11.425781 14.265625-15.613281-5.761718-4.1875-10.617187-9.5-14.265625-15.617187-3.652343 6.117187-8.503906 11.429687-14.269531 15.617187zm0 0"/></svg>